<svg width="139" height="64" viewBox="0 0 139 64" fill="none" xmlns="http://www.w3.org/2000/svg">
<path d="M30.4186 0.170441C26.9762 0.536224 23.3176 1.61695 20.0082 3.22974C11.8762 7.2035 5.98917 14.1035 3.36164 22.7327C0.251836 32.9747 2.54677 44.2143 9.44821 52.5443C12.8075 56.6012 18.0792 60.2923 23.0848 62.0879C26.0117 63.1354 30.5516 64 33.096 64C33.8277 64 33.8943 63.9667 33.8943 63.6176C33.8943 63.2352 33.8444 63.2185 32.0317 63.1188C24.2322 62.6699 16.6656 59.145 11.2775 53.4255C7.48587 49.4018 4.75856 44.2476 3.5612 38.8772C-0.612922 20.0392 12.9239 1.96611 32.0317 0.868755C33.8444 0.768997 33.8943 0.752369 33.8943 0.369957C33.8943 0.00417328 33.8444 -0.0124512 32.8632 0.00417328C32.2812 0.0207977 31.1836 0.103931 30.4186 0.170441Z" fill="#1C1B1F"/>
<path d="M30.984 1.50058C17.1146 2.8307 5.82288 13.5881 3.71088 27.5212C3.37828 29.6827 3.37828 34.3049 3.71088 36.4663C5.54017 48.5206 14.1545 58.2638 25.9119 61.5725C27.2423 61.9549 30.402 62.4537 32.2812 62.5867L33.8943 62.7031V62.2875C33.8943 61.8884 33.861 61.8884 31.616 61.6889C27.6913 61.3397 24.9473 60.6248 21.6879 59.145C16.5825 56.8173 12.2587 53.1428 9.1655 48.5373C5.42376 42.9341 3.62773 35.8013 4.27629 29.2504C4.99138 22.2007 7.75196 16.265 12.6911 11.144C17.6967 5.97313 24.2655 2.88058 31.5328 2.28202C33.8277 2.08251 33.8943 2.06588 33.8943 1.7001C33.8943 1.2678 33.6781 1.25117 30.984 1.50058Z" fill="#1C1B1F"/>
<path d="M39.5483 10.1296V18.4429H40.7124H41.8765V12.5072C41.8765 9.24835 41.9098 6.62135 41.9597 6.67123C42.0096 6.72111 42.7247 9.26498 43.5562 12.3077C44.371 15.3669 45.0861 17.994 45.136 18.1436C45.2192 18.393 45.4353 18.4429 46.5496 18.4429H47.8633V10.1296V1.81626H46.6992H45.5351L45.5019 6.5881L45.452 11.3766L44.3378 7.21991C43.7225 4.92544 43.1238 2.7806 43.0406 2.43144L42.8577 1.81626H41.2113H39.5483V10.1296Z" fill="#1C1B1F"/>
<path d="M50.8569 10.1296V18.4429H54.4324H58.0078V17.279V16.1151H55.7628H53.5011L53.551 13.6544L53.6009 11.2103L55.3969 11.1604L57.1763 11.1105V9.9633V8.79944H55.347H53.5177V6.47171V4.14399H55.7628H58.0078V2.98012V1.81626H54.4324H50.8569V10.1296Z" fill="#1C1B1F"/>
<path d="M60.3359 2.14877C60.3359 2.54781 61.9657 17.1127 62.0987 17.9108L62.1819 18.4595L63.9613 18.4096L65.7407 18.3597L66.1564 14.4192C66.3892 12.2577 66.6221 10.4454 66.672 10.3956C66.7218 10.3457 66.9214 11.9585 67.1376 14.0035C67.3372 16.032 67.5533 17.8609 67.6032 18.0604C67.6864 18.4262 67.7695 18.4428 69.3826 18.4428H71.0789L71.9437 10.4953C72.4259 6.13915 72.8583 2.39817 72.9082 2.18202C72.9747 1.83286 72.9415 1.81623 71.8439 1.81623H70.6964L70.5966 2.51455C70.5467 2.91359 70.264 5.65698 69.9647 8.63315C69.6653 11.6093 69.3826 14.0867 69.3327 14.1532C69.2662 14.2197 68.9835 11.7589 68.6676 8.6664C68.3682 5.59048 68.0855 2.78058 68.0356 2.43142L67.9358 1.81623H66.7385H65.5245L65.4247 2.59769C65.275 3.77817 64.3271 13.7209 64.3271 14.1532C64.3271 14.3527 64.2939 14.4691 64.244 14.4192C64.1775 14.3527 62.8304 2.4813 62.8304 1.93262C62.8304 1.86611 62.265 1.81623 61.5832 1.81623C60.4523 1.81623 60.3359 1.84949 60.3359 2.14877Z" fill="#1C1B1F"/>
<path d="M30.4022 2.9304C26.5108 3.34606 21.289 5.27475 17.8466 7.56922C15.086 9.39815 12.0427 12.3743 10.0637 15.1177C7.9351 18.1105 6.1058 22.3337 5.29094 26.1744C4.77541 28.552 4.64237 33.4402 5.02486 36.0672C6.45503 45.8936 12.5416 54.1902 21.4553 58.43C24.9808 60.0927 28.2569 60.9573 31.7825 61.1235C33.8113 61.2233 33.8945 61.2067 33.8945 60.8908C33.8945 60.5915 33.7115 60.5416 31.7825 60.3587C27.8911 60.0095 24.5651 59.0951 21.4054 57.4989C16.7989 55.2045 13.1569 52.0288 10.413 47.9553C0.817476 33.673 5.87299 14.2531 21.1726 6.60488C24.8478 4.75933 27.8578 3.96125 32.614 3.54558C33.7115 3.46245 33.8945 3.39594 33.8945 3.12992C33.8945 2.84726 33.7614 2.81401 32.4477 2.84726C31.6328 2.84726 30.7182 2.89714 30.4022 2.9304Z" fill="#1C1B1F"/>
<path d="M30.6512 4.32701C27.2421 4.77592 23.4504 6.00629 20.3739 7.70221C15.651 10.2793 11.1609 15.1011 8.79944 20.1057C5.20737 27.7539 5.27389 36.5826 8.94911 44.1644C13.0068 52.4943 21.1555 58.3967 30.2022 59.5772C31.333 59.7269 32.6302 59.8433 33.0792 59.8433C33.8275 59.8433 33.8941 59.81 33.8941 59.4608C33.8941 59.0784 33.8442 59.0618 32.1313 58.9621C22.7187 58.3801 14.0878 52.6439 9.81387 44.1311C7.70186 39.9246 6.82048 35.7014 7.0034 30.8465C7.25285 24.3953 9.64757 18.6093 14.0545 13.7543C16.4659 11.094 18.7608 9.36487 22.0369 7.71883C25.1966 6.15593 28.6224 5.22484 31.9484 5.02533C33.8442 4.92556 33.8941 4.90894 33.8941 4.52653C33.8941 4.16074 33.8442 4.14412 32.863 4.16074C32.281 4.17737 31.2998 4.2605 30.6512 4.32701Z" fill="#1C1B1F"/>
<path d="M31.2337 5.65741C27.3589 6.0232 22.8522 7.61935 19.5096 9.79744C17.5639 11.0777 16.1004 12.3413 14.504 14.1037C9.51497 19.6404 7.15352 26.4074 7.61916 33.7398C8.2012 42.4687 12.8077 50.0338 20.4409 54.7392C23.268 56.485 27.2758 57.8317 30.9177 58.2474C33.8779 58.5965 33.8945 58.5965 33.8945 58.1144C33.8945 57.7486 33.828 57.732 32.2814 57.6156C20.6238 56.8009 11.0117 48.3047 8.79988 36.8656C6.60473 25.5262 12.2589 14.0705 22.503 9.04924C25.8622 7.41983 28.7558 6.62176 32.298 6.37236C33.828 6.25597 33.8945 6.23935 33.8945 5.87356C33.8945 5.42464 33.7781 5.40802 31.2337 5.65741Z" fill="#1C1B1F"/>
<path d="M30.1528 7.22032C19.044 8.98274 10.5793 17.6785 9.09924 28.8349C8.83316 30.9132 8.99946 35.2029 9.44847 37.1482C11.0782 44.3642 15.2024 50.0338 21.5218 53.7249C24.4986 55.4874 28.7725 56.7842 32.1816 56.9671L33.8945 57.0669V56.6346C33.8945 56.1857 33.8779 56.1857 32.6639 56.1857C28.8723 56.1857 23.9332 54.523 20.2247 52.0124C18.3289 50.7155 15.1525 47.5897 14.0383 45.9104C12.0594 42.9177 10.5793 39.2764 10.0471 36.0841C9.69792 34.0224 9.69792 29.9655 10.0471 27.9038C11.3443 20.1724 16.5328 13.3888 23.7669 9.98034C26.5274 8.68346 30.1029 7.80225 32.6972 7.80225C33.8613 7.80225 33.8945 7.78563 33.8945 7.38659C33.8945 6.98755 33.8613 6.97092 32.6972 6.98755C32.032 7.00417 30.8845 7.10393 30.1528 7.22032Z" fill="#1C1B1F"/>
<path d="M31.0674 8.48351C27.3256 8.96568 23.7834 10.3124 20.3743 12.557C19.7257 13.0059 18.3454 14.1864 17.3476 15.2007C13.872 18.6756 11.7766 22.4997 10.7455 27.3048C10.23 29.7157 10.23 34.2381 10.7455 36.6822C13.0072 47.2734 21.6382 54.8219 32.3645 55.6199L33.8944 55.7363V55.3207C33.8944 54.905 33.8612 54.905 32.2813 54.7886C21.6881 54.0404 12.9573 45.9599 11.3608 35.402C10.4961 29.7822 11.7267 24.1957 14.8698 19.3906C16.1669 17.3954 19.2102 14.2696 21.0062 13.0891C24.5817 10.7447 28.2901 9.44785 32.1982 9.19845C33.8446 9.08206 33.8944 9.06543 33.8944 8.68302C33.8944 8.33387 33.8279 8.30061 33.0297 8.31724C32.5474 8.33387 31.666 8.40037 31.0674 8.48351Z" fill="#1C1B1F"/>
<path d="M31.5328 9.81408C26.3276 10.3628 21.5714 12.7404 17.813 16.6809C13.7553 20.9207 11.6932 26.1414 11.7265 32.0771C11.7764 38.2622 13.905 43.3499 18.2454 47.7227C22.0204 51.5136 27.1092 53.8746 32.1148 54.1406C33.8277 54.2404 33.8942 54.2238 33.8942 53.9078C33.8942 53.5919 33.7445 53.5587 32.2811 53.4423C24.4151 52.8604 17.3973 47.8225 14.2376 40.5234C9.28187 29.0677 15.119 15.7997 26.9429 11.6596C28.6225 11.0611 30.4019 10.6953 32.4474 10.529C33.8277 10.4293 33.8942 10.396 33.8942 10.0302C33.8942 9.58131 33.7944 9.56468 31.5328 9.81408Z" fill="#1C1B1F"/>
<path d="M30.4687 11.3936C25.7624 12.175 21.4054 14.6358 18.1459 18.3269C16.9485 19.7069 16.0672 21.037 15.1858 22.8493C13.5727 26.1913 13.0072 28.9513 13.1569 32.8087C13.2567 35.4689 13.5727 37.1482 14.3875 39.3097C16.5328 45.0625 21.2224 49.668 27.0263 51.7464C28.5729 52.3117 31.4665 52.8604 32.8302 52.8604C33.8612 52.8604 33.8945 52.8437 33.8945 52.4447C33.8945 52.0456 33.8446 52.029 32.9466 52.029C30.6017 52.029 27.3755 51.1977 24.9143 49.9507C19.2934 47.1242 15.2357 41.654 14.1713 35.5022C12.8077 27.6544 16.1503 19.7734 22.6859 15.3341C25.6627 13.3056 29.7703 11.9589 32.9466 11.9589C33.8446 11.9589 33.8945 11.9423 33.8945 11.5432C33.8945 11.1442 33.8612 11.1276 32.8634 11.1442C32.2814 11.1608 31.2171 11.2606 30.4687 11.3936Z" fill="#1C1B1F"/>
<path d="M31.4827 12.574C30.2687 12.7569 28.1068 13.3389 26.7765 13.8543C18.3949 17.0799 13.3228 25.9252 14.6698 34.9036C16.0335 43.9152 23.3174 50.6822 32.5304 51.4637L33.8941 51.5801V51.1644C33.8941 50.7654 33.8608 50.7487 32.3641 50.649C26.8762 50.2832 21.4216 47.0244 18.3118 42.2692C16.0834 38.8441 15.1355 35.3691 15.3184 31.0961C15.5013 26.3409 17.2142 22.4004 20.5901 18.942C23.8662 15.5835 27.9738 13.6215 32.3641 13.3389C33.8276 13.2391 33.8941 13.2225 33.8941 12.8401C33.8941 12.4743 33.8442 12.4577 32.9462 12.4743C32.414 12.4909 31.7654 12.5408 31.4827 12.574Z" fill="#1C1B1F"/>
<path d="M31.8155 13.9706C26.6602 14.5193 21.7211 17.5952 18.7943 22.0677C13.4727 30.2314 15.5182 41.0886 23.4506 46.7416C26.1447 48.6703 29.9696 50.0171 32.7801 50.0337C33.7446 50.0337 33.8943 50.0004 33.8943 49.7344C33.8943 49.4684 33.6448 49.4019 32.1648 49.219C28.9884 48.8532 26.0616 47.7226 23.6668 45.9269C20.3741 43.4662 18.1956 40.2406 17.1479 36.2669C16.7654 34.8536 16.7155 34.3215 16.7155 31.9938C16.6989 29.6495 16.7654 29.1507 17.1313 27.7374C17.9628 24.6781 19.3098 22.2839 21.5881 19.8896C24.1657 17.1629 27.3587 15.4836 31.1503 14.8684C31.9818 14.7354 32.9297 14.619 33.279 14.619C33.8277 14.619 33.8943 14.5691 33.8943 14.2033C33.8943 13.7378 33.9774 13.7378 31.8155 13.9706Z" fill="#1C1B1F"/>
<path d="M30.4022 15.6332C24.3655 16.9135 19.3931 21.652 17.7301 27.754C17.3975 28.9844 17.3477 29.5331 17.3477 31.9938C17.3643 34.4047 17.4142 35.0365 17.7468 36.2336C18.1958 37.9295 19.1271 39.9579 20.0916 41.4045C21.0229 42.7678 23.2014 44.9459 24.5651 45.877C26.8933 47.4399 29.8201 48.4708 32.4976 48.6537L33.8945 48.7534V48.3378C33.8945 47.9387 33.8446 47.9221 32.4477 47.8223C28.7392 47.5563 25.1804 45.8271 22.4032 42.9341C15.6015 35.901 16.8488 24.3788 25.0141 18.759C26.095 18.0274 28.6394 16.8636 29.9033 16.531C30.502 16.3814 31.6328 16.2151 32.4477 16.1653C33.828 16.0655 33.8945 16.0489 33.8945 15.6831C33.8945 15.3007 33.828 15.284 32.9466 15.3007C32.4144 15.3007 31.2669 15.4503 30.4022 15.6332Z" fill="#1C1B1F"/>
<path d="M31.3166 16.8637C27.9407 17.4788 25.4462 18.7923 23.0848 21.1699C19.9916 24.2958 18.4118 28.4191 18.6446 32.7421C18.761 34.8869 19.2266 36.7158 20.0914 38.5448C21.006 40.4402 21.9706 41.7537 23.5504 43.2335C26.1281 45.6443 29.0217 46.9079 32.78 47.2904L33.8943 47.4067V46.9744C33.8943 46.5754 33.8444 46.5422 33.1625 46.5422C29.4873 46.5422 24.8143 44.098 22.4528 40.9556C20.1912 37.9296 19.2931 34.9867 19.4761 31.1127C19.6257 27.4881 21.006 24.3789 23.6502 21.6854C26.0283 19.2579 30.086 17.4456 33.1625 17.4456C33.8277 17.4456 33.8943 17.4123 33.8943 17.0299C33.8943 16.6475 33.8277 16.6143 33.1958 16.6309C32.7967 16.6309 31.9652 16.7473 31.3166 16.8637Z" fill="#1C1B1F"/>
<path d="M41.6439 29.0012C40.7791 29.3005 40.1139 29.9822 39.7647 30.8966C39.4986 31.5783 39.4653 32.3099 39.4653 37.2314C39.4653 42.2193 39.4986 42.8844 39.7647 43.5827C40.3135 44.996 41.5108 45.7109 43.2902 45.7109C44.9865 45.7109 46.0508 45.129 46.7493 43.8155C47.0819 43.1837 47.1151 42.8678 47.165 39.6755L47.2149 36.2338H45.3856H43.5397V37.4808V38.7278H44.1217H44.7038V40.6232C44.7038 42.236 44.6539 42.5685 44.3878 42.901C43.9388 43.4497 42.808 43.4497 42.3589 42.901C42.0596 42.5353 42.043 42.1695 42.043 37.1981V31.8942L42.4587 31.4952C42.7082 31.2292 43.0574 31.0795 43.3734 31.0795C43.6893 31.0795 44.0386 31.2292 44.288 31.4952C44.6539 31.861 44.7038 32.0272 44.7038 33.241V34.5711H45.9676H47.2315L47.165 32.9417C47.0819 31.1294 46.7659 30.2814 45.8679 29.5332C44.9532 28.7518 43.0075 28.519 41.6439 29.0012Z" fill="#1C1B1F"/>
<path d="M120.304 29.0008C119.422 29.3167 118.607 30.148 118.291 31.0459C117.909 32.1765 117.926 42.3021 118.308 43.4327C118.923 45.2616 121.135 46.1595 123.447 45.5277C124.311 45.2783 125.426 44.1643 125.675 43.2997C125.791 42.8674 125.858 40.6727 125.858 37.231C125.858 33.7893 125.791 31.5946 125.675 31.1623C125.426 30.2977 124.311 29.1837 123.447 28.9343C122.549 28.6849 121.102 28.7182 120.304 29.0008ZM122.599 31.262C122.831 31.3784 123.097 31.6777 123.197 31.9603C123.297 32.2596 123.364 34.3213 123.364 37.231C123.364 40.1406 123.297 42.2023 123.197 42.5016C122.765 43.732 121.035 43.6322 120.686 42.352C120.586 41.9363 120.536 39.858 120.57 36.7987L120.62 31.8772L121.085 31.4782C121.601 31.0293 121.983 30.9794 122.599 31.262Z" fill="#1C1B1F"/>
<path d="M50.0254 37.2311V45.5444H53.6008H57.1763V44.3806V43.2167H54.9312H52.6862V40.7227V38.2287H54.4323H56.1785V37.0649V35.901H54.4323H52.6862V33.5733V31.2455H54.9312H57.1763V30.0817V28.9178H53.6008H50.0254V37.2311Z" fill="#1C1B1F"/>
<path d="M60.0034 37.2311V45.5444H61.1675H62.3316L62.3649 39.6752L62.4148 33.8227L63.9946 39.6752L65.5745 45.5444H66.9547H68.3184V37.2311V28.9178H67.1543H65.9902V33.7728C65.9902 36.4497 65.9237 38.528 65.8405 38.395C65.774 38.262 65.1587 36.0673 64.4769 33.5234L63.2629 28.9178H61.6332H60.0034V37.2311Z" fill="#1C1B1F"/>
<path d="M71.3115 37.2311V45.5444H74.887H78.4624V44.3806V43.2167H76.2174H73.9723V40.7227V38.2287H75.7185H77.4646V37.0649V35.901H75.7185H73.9723V33.5733V31.2455H76.2174H78.4624V30.0817V28.9178H74.887H71.3115V37.2311Z" fill="#1C1B1F"/>
<path d="M81.2896 37.2311V45.5444H82.5368H83.784L83.8173 42.1692L83.8672 38.8107L84.7652 38.8273C86.2785 38.8772 86.3451 39.0102 86.4615 42.5184C86.528 44.1312 86.5779 45.4779 86.5945 45.4946C86.5945 45.5278 87.1932 45.5444 87.9249 45.5444H89.222L89.1722 44.0813C89.1389 43.2832 89.089 41.9198 89.0557 41.0386C88.9726 39.2263 88.5735 38.1123 87.8584 37.7299L87.4426 37.5138L88.0912 36.8155C88.8894 35.9343 89.1888 34.7538 89.0557 32.8084C88.9227 30.5805 88.2575 29.533 86.6943 29.1007C86.3284 29.001 84.9648 28.9178 83.6676 28.9178H81.2896V37.2311ZM86.079 31.6446C86.2952 31.8607 86.3783 32.293 86.4116 33.5068C86.5114 35.8677 86.1621 36.3998 84.5324 36.3998H83.784V33.9391C83.784 32.5757 83.8339 31.4118 83.9171 31.3453C84.1333 31.1125 85.7796 31.3453 86.079 31.6446Z" fill="#1C1B1F"/>
<path d="M93.9285 29.0841C93.9285 29.2836 91.4672 44.8129 91.3675 45.2452C91.3009 45.5112 91.4506 45.5444 92.5149 45.5444H93.7289L93.9451 44.048L94.1447 42.5516H95.7744H97.3875L97.6037 44.048L97.8033 45.5444H99.1004C100.048 45.5444 100.414 45.4779 100.414 45.3283C100.414 45.2285 99.8155 41.5042 99.117 37.0649L97.8199 29.001L95.8742 28.9511C94.6103 28.9178 93.9285 28.9677 93.9285 29.0841ZM96.4396 36.3167L97.0216 40.2239H95.8077C94.9429 40.2239 94.5937 40.1574 94.5937 40.0078C94.577 39.5256 95.6746 32.4094 95.7578 32.4094C95.8243 32.4094 96.1236 34.1718 96.4396 36.3167Z" fill="#1C1B1F"/>
<path d="M102.077 30.0817V31.2289L103.457 31.2788L104.821 31.3287L104.871 38.4282L104.904 45.5444H106.151H107.399V38.395V31.2455H108.812H110.226V30.0817V28.9178H106.151H102.077V30.0817Z" fill="#1C1B1F"/>
<path d="M112.388 37.2311V45.5444H113.718H115.048V37.2311V28.9178H113.718H112.388V37.2311Z" fill="#1C1B1F"/>
<path d="M128.685 37.2311V45.5444H129.849H131.013V39.6087C131.013 36.3499 131.047 33.7229 131.096 33.7728C131.146 33.8227 131.861 36.3665 132.693 39.4092C133.508 42.4685 134.223 45.0955 134.273 45.2452C134.356 45.4946 134.572 45.5444 135.686 45.5444H137V37.2311V28.9178H135.836H134.672L134.639 33.6897L134.589 38.4781L133.474 34.3215C132.859 32.027 132.261 29.8822 132.177 29.533L131.994 28.9178H130.348H128.685V37.2311Z" fill="#1C1B1F"/>
<path d="M67.121 54.8553C66.0234 55.1878 65.0422 56.0857 64.6431 57.1332C64.3604 57.898 64.4435 59.411 64.8094 60.1259C65.4746 61.4394 66.672 62.1876 68.1188 62.1876C69.6487 62.2043 70.6964 61.6223 71.4115 60.4086C72.3095 58.8789 72.0767 57.0999 70.8295 55.8529C69.7818 54.8221 68.4347 54.4563 67.121 54.8553ZM69.5323 55.4206C70.1809 55.7033 71.0623 56.6011 71.2951 57.2329C71.5778 57.9811 71.5113 59.2946 71.1454 59.9929C70.4969 61.2898 69.233 61.9549 67.7695 61.7886C64.4602 61.3896 63.7617 57.0334 66.7385 55.4705C67.3538 55.138 68.8172 55.1047 69.5323 55.4206Z" fill="#1C1B1F"/>
<path d="M107.149 54.9551C105.736 55.4705 104.754 56.917 104.738 58.4799C104.738 60.6248 106.268 62.1877 108.413 62.1877C109.677 62.2043 111.19 61.5392 110.808 61.1402C110.758 61.0903 110.375 61.24 109.943 61.4395C108.563 62.1544 107.016 61.8219 105.952 60.6248C104.522 58.9954 105.021 56.4681 106.95 55.537C107.881 55.0881 109.078 55.0881 110.009 55.537C110.409 55.7366 110.791 55.8363 110.858 55.7698C111.041 55.6035 110.209 55.0549 109.444 54.872C108.529 54.6392 107.964 54.6558 107.149 54.9551Z" fill="#1C1B1F"/>
<path d="M39.3823 58.513C39.3823 60.8408 39.4488 62.1709 39.5486 62.1709C39.6483 62.1709 39.7149 61.6555 39.7149 60.9405V59.7268L40.779 59.6437C42.4749 59.494 43.3727 58.6461 43.3727 57.1829C43.3727 55.6366 42.425 54.8552 40.5628 54.8552H39.3823V58.513ZM42.0093 55.5203C43.2064 56.2518 43.3395 57.7316 42.2754 58.6627C41.7766 59.1116 41.577 59.1781 40.7125 59.1781H39.7149V57.2993C39.7149 56.2518 39.7647 55.354 39.8312 55.3041C40.064 55.0547 41.4773 55.2043 42.0093 55.5203Z" fill="#1C1B1F"/>
<path d="M51.8545 58.513C51.8545 61.6554 51.8877 62.1709 52.1039 62.1709C52.3034 62.1709 52.3533 61.9215 52.3533 60.9239V59.6769H53.0682C53.7499 59.6769 53.7832 59.6935 54.5646 60.9239C54.9969 61.6222 55.4791 62.1709 55.6121 62.1709C55.9114 62.1709 55.928 62.2041 54.7475 60.4417L54.1988 59.627L54.7309 59.2778C55.9114 58.4797 56.2772 57.3159 55.7119 56.1853C55.2297 55.2209 54.4981 54.8551 53.0849 54.8551H51.8545V58.513ZM54.4482 55.4537C55.1466 55.7862 55.5123 56.4347 55.5123 57.2993C55.5123 58.4797 54.6478 59.1781 53.1846 59.1781H52.3533V57.1829V55.1877H53.1181C53.5338 55.1877 54.1323 55.3041 54.4482 55.4537Z" fill="#1C1B1F"/>
<path d="M82.9523 58.0146C82.9523 60.9575 82.9357 61.1903 82.6198 61.5062C82.4369 61.6891 82.1376 61.8388 81.9547 61.8388C81.6055 61.8388 80.9571 61.2901 80.9571 60.9908C80.9571 60.9077 80.8906 60.8744 80.7908 60.9243C80.5248 61.0906 80.5913 61.3233 81.0402 61.7556C81.5723 62.3043 82.4202 62.3209 82.919 61.7889C83.2682 61.4231 83.2848 61.2568 83.2848 58.131C83.2848 56.0527 83.2183 54.8556 83.1186 54.8556C83.0188 54.8556 82.9523 56.0194 82.9523 58.0146Z" fill="#1C1B1F"/>
<path d="M92.2656 58.513V62.1709H94.0946C95.2085 62.1709 95.9235 62.1044 95.9235 62.0046C95.9235 61.9049 95.2917 61.8384 94.344 61.8384H92.7644V60.2588V58.6793H94.344C95.2917 58.6793 95.9235 58.6128 95.9235 58.513C95.9235 58.4133 95.2917 58.3468 94.344 58.3468H92.7644V56.7673V55.1877H94.344C95.2917 55.1877 95.9235 55.1212 95.9235 55.0215C95.9235 54.9217 95.2085 54.8552 94.0946 54.8552H92.2656V58.513Z" fill="#1C1B1F"/>
<path d="M119.206 55.0215C119.206 55.1046 119.622 55.1877 120.121 55.1877H121.035V58.6793C121.035 61.6721 121.068 62.1709 121.284 62.1709C121.501 62.1709 121.534 61.6721 121.534 58.6793V55.1877H122.448C122.947 55.1877 123.363 55.1046 123.363 55.0215C123.363 54.9217 122.565 54.8552 121.284 54.8552C120.004 54.8552 119.206 54.9217 119.206 55.0215Z" fill="#1C1B1F"/>
</svg>
